# xmcd
#
# Track frame offsets: 
#        150
#        11262
#        21172
#        34707
#        45142
#        53940
#        63482
#        77447
#        90682
#        102497
#        112205
#        123922
#        134722
#        144017
#        156602
#        167082
#        175735
#        185830
#        196007
#        207687
#        218127
#        229860
#        244000
#        257372
#        270362
#        280210
#        290167
#        306055
#        318675
#        331740
#
# Disc length: 4554 seconds
#
# Revision: 0
# Processed by: cddbd v1.5PL3 Copyright (c) Steve Scherf et al.
# Submitted via: ExactAudioCopy v0.95a4
#
DISCID=b211c81e
DTITLE=Bill Monroe - Blue Grass 1970-1979
DYEAR=1994
DGENRE=Country
TTITLE0=Mckinley's March
TTITLE1=Texas Gallop
TTITLE2=Road Of Life
TTITLE3=It's Me Again Loard
TTITLE4=Beyond The Gate
TTITLE5=I Will Sing For The Glory of God
TTITLE6=Kentucky Waltz
TTITLE7=The Girl In The Blue Velvet Band
TTITLE8=Lonesome Moonlight Waltz
TTITLE9=Tallahasee
TTITLE10=Get Up John
TTITLE11=Summertime Is Past And Gone
TTITLE12=Rocky Road Blues
TTITLE13=Mule Skinner Blues
TTITLE14=Poor White Folks
TTITLE15=The Old Grey Mare Came Tearing Out Of The Wilderness
TTITLE16=Kiss Me Waltz
TTITLE17=Jenny Lynn
TTITLE18=Heal And Toe Polka
TTITLE19=Milenburg Joy
TTITLE20=Sweatheart You Done Me Wrong
TTITLE21=Banks Of The Ohio
TTITLE22=Tall Pines
TTITLE23=Mother's Only Sleeping
TTITLE24=Foggy Mountain Top
TTITLE25=Love Please Come Home
TTITLE26=What Would You Give In Exchange
TTITLE27=When The Golden Leaves Gegin To Fall
TTITLE28=Walls Of Time
TTITLE29=My Old Kentucky And You
EXTD=
EXTT0=
EXTT1=
EXTT2=
EXTT3=
EXTT4=
EXTT5=
EXTT6=
EXTT7=
EXTT8=
EXTT9=
EXTT10=
EXTT11=
EXTT12=
EXTT13=
EXTT14=
EXTT15=
EXTT16=
EXTT17=
EXTT18=
EXTT19=
EXTT20=
EXTT21=
EXTT22=
EXTT23=
EXTT24=
EXTT25=
EXTT26=
EXTT27=
EXTT28=
EXTT29=
PLAYORDER=
